<?xml version="1.0" encoding="UTF-8" standalone="no"?>
<svg
   id="Layer_2"
   viewBox="0 0 360.03 396.27"
   version="1.1"
   sodipodi:docname="logo.svg"
   inkscape:export-filename="\\wsl.localhost\Ubuntu\home\janash\anilines\public\brand\logo144.png"
   inkscape:export-xdpi="38.396801"
   inkscape:export-ydpi="38.396801"
   inkscape:version="1.1.2 (b8e25be833, 2022-02-05)"
   xmlns:inkscape="http://www.inkscape.org/namespaces/inkscape"
   xmlns:sodipodi="http://sodipodi.sourceforge.net/DTD/sodipodi-0.dtd"
   xmlns="http://www.w3.org/2000/svg"
   xmlns:svg="http://www.w3.org/2000/svg">
  <sodipodi:namedview
     id="namedview58"
     pagecolor="#ffffff"
     bordercolor="#666666"
     borderopacity="1.0"
     inkscape:pageshadow="2"
     inkscape:pageopacity="0.0"
     inkscape:pagecheckerboard="0"
     showgrid="false"
     inkscape:zoom="2.0617256"
     inkscape:cx="180.18886"
     inkscape:cy="198.37751"
     inkscape:window-width="1920"
     inkscape:window-height="1001"
     inkscape:window-x="-7"
     inkscape:window-y="-7"
     inkscape:window-maximized="1"
     inkscape:current-layer="Layer_1-2" />
  <defs
     id="defs4">
    <style
       id="style2">.cls-1{font-size:36.39px;}.cls-1,.cls-2{font-family:Helvetica, Helvetica;}.cls-2{font-size:48.52px;}.cls-3{fill:#fdb825;}.cls-4{fill:#552c82;}.cls-5{fill:none;stroke:#231f20;stroke-miterlimit:10;stroke-width:4px;}</style>
  </defs>
  <g
     id="Layer_1-2">
    <polygon
       class="cls-5"
       points="174.61 394.03 2 303.86 2 93.95 174.61 2.25 358.03 92.42 358.03 302.33 174.61 394.03"
       id="polygon54"
       style="fill:#ffffff" />
    <polygon
       points="79.28 243.4 74.16 246.9 74.16 219.66 79.28 219.66 79.28 243.4"
       id="polygon6" />
    <polygon
       points="74.16 169.32 79.28 172.68 79.28 199.95 74.16 199.95 74.16 169.32"
       id="polygon8" />
    <rect
       x="80.88"
       y="219.66"
       width="5.12"
       height="18"
       id="rect10" />
    <rect
       x="80.87"
       y="178.55"
       width="5.12"
       height="21.39"
       id="rect12" />
    <polygon
       points="141.35 279.78 141.35 285.69 74.16 246.9 79.28 243.95 141.35 279.78"
       id="polygon14" />
    <polygon
       points="203.42 243.95 208.54 246.9 141.35 285.69 141.35 279.78 203.42 243.95"
       id="polygon16" />
    <rect
       x="141.17"
       y="254.99"
       width="59.12"
       height="5.12"
       transform="translate(-105.9 119.87) rotate(-30)"
       id="rect18" />
    <polygon
       points="203.42 172.27 205.98 170.8 208.54 172.27 208.54 246.9 203.42 243.95 203.42 172.27"
       id="polygon20" />
    <polygon
       points="141.35 136.44 141.35 130.53 205.98 167.84 205.98 170.8 203.42 172.27 141.35 136.44"
       id="polygon22" />
    <rect
       x="168.17"
       y="129.18"
       width="5.12"
       height="59.12"
       transform="translate(-52.11 227.22) rotate(-60)"
       id="rect24" />
    <polygon
       points="79.28 172.27 74.16 169.32 141.35 130.53 141.35 136.44 79.28 172.27"
       id="polygon26" />
    <text
       class="cls-2"
       transform="translate(253.07 150.76)"
       id="text30"><tspan
         x="0"
         y="0"
         id="tspan28">NH</tspan></text>
    <text
       class="cls-1"
       transform="translate(323.14 161.93)"
       id="text34"><tspan
         x="0"
         y="0"
         id="tspan32">2</tspan></text>
    <polygon
       points="241.56 147.3 244.12 151.73 208.54 172.27 205.98 170.8 205.98 167.84 241.56 147.3"
       id="polygon36" />
    <rect
       x="38.28"
       y="207.53"
       width="61.59"
       height="5.12"
       id="rect38" />
    <circle
       class="cls-3"
       cx="141.35"
       cy="133.61"
       r="17.67"
       id="circle40" />
    <circle
       class="cls-3"
       cx="205.07"
       cy="169.32"
       r="17.67"
       id="circle42" />
    <circle
       class="cls-3"
       cx="205.07"
       cy="246.9"
       r="17.67"
       id="circle44" />
    <circle
       class="cls-3"
       cx="141.35"
       cy="282.24"
       r="17.67"
       id="circle46" />
    <circle
       class="cls-3"
       cx="76.72"
       cy="246.9"
       r="17.67"
       id="circle48" />
    <circle
       class="cls-3"
       cx="76.72"
       cy="170.8"
       r="17.67"
       id="circle50" />
    <circle
       class="cls-4"
       cx="35.07"
       cy="210.09"
       r="17.67"
       id="circle52" />
  </g>
</svg>
